<svg width="123" height="215" viewBox="0 0 123 215" fill="none" xmlns="http://www.w3.org/2000/svg">
<path d="M51.1982 153.54L51.1982 210.178L30.0403 210.178" stroke="#383838" stroke-width="3"/>
<path d="M66.4971 153.54L66.4971 210.178L87.655 210.178" stroke="#383838" stroke-width="3"/>
<path d="M4 91.0264H120.206V153.511C120.206 153.511 104.402 168.391 62.1029 168.391C19.804 168.391 4 153.511 4 153.511V91.0264Z" fill="white" stroke="#383838" stroke-width="3" stroke-miterlimit="10"/>
<ellipse cx="62.1029" cy="90.8675" rx="58.1029" ry="13.5308" fill="#383838" stroke="#383838" stroke-width="3" stroke-miterlimit="10"/>
<path d="M101 128.001C101 134.628 103.695 140.001 107.02 140.001C109.993 140.001 112.463 135.703 112.952 130.055C112.987 129.65 112.761 129.271 112.395 129.095L107.225 126.616C106.46 126.249 106.47 125.157 107.241 124.805L111.597 122.812C112.039 122.61 112.275 122.118 112.13 121.654C111.066 118.259 109.175 116.001 107.02 116.001C103.695 116.001 101 121.373 101 128.001Z" fill="#383838"/>
<path d="M81 132.001C81 138.628 83.6951 144.001 87.0198 144.001C89.9931 144.001 92.463 139.703 92.9517 134.055C92.9867 133.65 92.7611 133.271 92.3954 133.095L87.2246 130.616C86.4601 130.249 86.47 129.157 87.2409 128.805L91.5975 126.812C92.0392 126.61 92.2749 126.118 92.1297 125.654C91.0664 122.259 89.1754 120.001 87.0198 120.001C83.6951 120.001 81 125.373 81 132.001Z" fill="#383838"/>
<path d="M4 16.8459H120.206V79.3305C120.206 79.3305 104.402 94.2102 62.1029 94.2102C19.804 94.2102 4 79.3305 4 79.3305V16.8459Z" fill="white" stroke="#383838" stroke-width="3" stroke-miterlimit="10"/>
<ellipse cx="62.1029" cy="16.6871" rx="58.1029" ry="13.5308" fill="white" stroke="#383838" stroke-width="3" stroke-miterlimit="10"/>
<ellipse cx="62.1029" cy="16.6871" rx="58.1029" ry="13.5308" fill="#383838" stroke="#383838" stroke-width="3" stroke-miterlimit="10"/>
<ellipse cx="72.9267" cy="16.6871" rx="47.2782" ry="13.5308" fill="white" stroke="#383838" stroke-width="3" stroke-miterlimit="10"/>
<path d="M22 53.0005C22 59.6279 19.3049 65.0005 15.9802 65.0005C13.0069 65.0005 10.537 60.7033 10.0483 55.0544C10.0133 54.6503 10.2389 54.2706 10.6046 54.0952L15.7754 51.6158C16.5399 51.2492 16.53 50.1574 15.7591 49.8047L11.4025 47.8115C10.9608 47.6095 10.7251 47.1175 10.8703 46.654C11.9336 43.2591 13.8246 41.0005 15.9802 41.0005C19.3049 41.0005 22 46.3731 22 53.0005Z" fill="#383838"/>
<path d="M41 56.0005C41 62.6279 38.3049 68.0005 34.9802 68.0005C32.0069 68.0005 29.537 63.7033 29.0483 58.0544C29.0133 57.6503 29.2389 57.2706 29.6046 57.0952L34.7754 54.6158C35.5399 54.2492 35.53 53.1574 34.7591 52.8047L30.4025 50.8115C29.9608 50.6095 29.7251 50.1175 29.8703 49.654C30.9336 46.2591 32.8246 44.0005 34.9802 44.0005C38.3049 44.0005 41 49.3731 41 56.0005Z" fill="#383838"/>
</svg>
