<svg width="350" height="300" viewBox="0 0 350 300" fill="none" xmlns="http://www.w3.org/2000/svg">
<path d="M224.742 191.515L224.742 296.653L279.102 296.653" stroke="#383838" stroke-width="3"/>
<path d="M123.51 191.515L123.51 296.653L69.1502 296.653" stroke="#383838" stroke-width="3"/>
<path d="M342.248 44.7119H6.00012V225.515C6.00012 225.515 51.7298 268.57 174.124 268.57C296.518 268.57 342.248 225.515 342.248 225.515V44.7119Z" fill="#6FC2FF" stroke="#383838" stroke-width="3" stroke-miterlimit="10"/>
<path d="M6.00098 93.2121C13.5013 196.998 42.0641 246.576 160.779 267.521V268.497C48.805 265.079 6.00098 225.666 6.00098 225.666V93.2121Z" fill="#383838"/>
<ellipse cx="168.124" cy="39.1522" rx="168.124" ry="39.1522" transform="matrix(-1 0 0 1 342.248 5)" fill="#6FC2FF" stroke="#383838" stroke-width="3" stroke-miterlimit="10"/>
<path d="M285 146C285 152.627 282.305 158 278.98 158C276.007 158 273.537 153.703 273.048 148.054C273.013 147.65 273.239 147.27 273.605 147.095L278.775 144.615C279.54 144.249 279.53 143.157 278.759 142.804L274.403 140.811C273.961 140.609 273.725 140.117 273.87 139.653C274.934 136.259 276.825 134 278.98 134C282.305 134 285 139.373 285 146Z" fill="#383838"/>
<path d="M311 142C311 148.627 308.305 154 304.98 154C302.007 154 299.537 149.703 299.048 144.054C299.013 143.65 299.239 143.27 299.605 143.095L304.775 140.615C305.54 140.249 305.53 139.157 304.759 138.804L300.403 136.811C299.961 136.609 299.725 136.117 299.87 135.653C300.934 132.259 302.825 130 304.98 130C308.305 130 311 135.373 311 142Z" fill="#383838"/>
</svg>
