<svg width="320" height="378" viewBox="0 0 320 378" fill="none" xmlns="http://www.w3.org/2000/svg">
<path d="M179.408 272.422L175.786 376.34L264.533 376.34L264.533 375.433C264.533 375.433 194.441 350.225 187.558 331.001C178.503 305.611 188.102 271.697 188.102 271.697L179.408 272.422Z" fill="#FF9538" stroke="#383838" stroke-width="3" stroke-miterlimit="10"/>
<path d="M178.684 292.372L179.409 272.423L188.103 271.697C188.103 271.697 185.748 279.858 184.48 291.102C182.669 291.465 180.677 292.009 178.684 292.372Z" fill="#383838"/>
<path d="M160.648 268.613L164.27 376.34L75.5223 376.34L75.5223 375.433C75.5223 375.433 145.615 350.224 152.497 331C161.553 305.61 151.592 270.427 151.592 270.427L160.648 268.613Z" fill="#FF9538" stroke="#383838" stroke-width="3" stroke-miterlimit="10"/>
<path d="M161.371 292.371L160.647 268.613L151.591 270.427C151.591 270.427 154.308 279.857 155.576 291.102C157.568 291.464 159.379 292.008 161.371 292.371Z" fill="#383838"/>
<path d="M306.11 221.256C298.609 262.964 231.626 285.821 156.5 272.31C129.669 267.484 114.605 260.997 89.7771 242.553C57.201 218.353 44.1938 182.388 81.2123 150.169C85.5516 107.425 108.536 107.763 183.663 121.274C258.79 134.785 313.611 179.549 306.11 221.256Z" fill="white" stroke="#383838" stroke-width="3" stroke-miterlimit="10"/>
<path d="M306.752 214.662C303.602 258.282 245.108 217.541 234.643 197.42C228.209 185.169 237.719 178.231 243.367 194.853C270.835 275.162 185.145 226.843 186.505 185.311" stroke="#383838" stroke-width="3" stroke-miterlimit="10"/>
<path d="M108.207 253.604C108.207 253.604 78.7486 241.012 58.3687 205.919C35.5294 174.027 31.3136 132.254 33.0041 115.35C29.623 21.5332 102.44 -10.6647 132.737 40.1296C142.788 56.99 142.034 124.648 181.758 140.706L129.178 170.692L113.457 249.049L108.207 253.604Z" fill="white"/>
<path d="M179.222 136.482C141.691 121.772 149.412 77.9767 136.116 49.4292C107.38 -12.2712 40.4998 14.7744 33.8484 95.9144C30.3808 159.936 48.6078 221.958 107.967 254.919" stroke="#383838" stroke-width="3" stroke-miterlimit="10"/>
<path d="M109.786 66.8791C109.59 75.2158 105.8 81.8881 101.32 81.7823C97.2208 81.6854 93.9643 75.9461 93.5905 68.584C93.58 68.377 93.7017 68.1856 93.8928 68.1054L103.011 64.2793C103.411 64.1115 103.419 63.5478 103.025 63.368L95.0367 59.7312C94.8095 59.6278 94.6935 59.3715 94.7713 59.1343C96.2689 54.5663 98.9897 51.5207 102.028 51.5925C106.508 51.6984 109.981 58.5424 109.786 66.8791Z" fill="#383838"/>
<path d="M80.8391 66.8791C80.6438 75.2158 76.8537 81.8881 72.3739 81.7823C68.2744 81.6854 65.0179 75.9461 64.6441 68.584C64.6336 68.377 64.7553 68.1856 64.9464 68.1054L74.0647 64.2793C74.4647 64.1115 74.473 63.5478 74.0782 63.368L66.0903 59.7312C65.8631 59.6278 65.7471 59.3715 65.8249 59.1343C67.3225 54.5663 70.0433 51.5207 73.0814 51.5925C77.5613 51.6984 81.0345 58.5424 80.8391 66.8791Z" fill="#383838"/>
<path d="M94.1794 119.25L97.72 124.598C98.7187 126.106 98.5778 128.098 97.4323 129.498C92.4982 135.529 89.6662 139.832 74.6251 140.841L23.6585 139.769L14.4438 142.126L10.5863 130.876L39.9452 117.493C46.8438 113.902 59.3382 106.413 64.2304 103.002C71.3577 98.0316 72.4069 96.6486 80.3883 91.9699C87.5633 87.764 92.2144 92.5354 93.016 94.9505V115.386C93.016 116.76 93.4206 118.104 94.1794 119.25Z" fill="#FF9538" stroke="#383838" stroke-width="3" stroke-linejoin="bevel"/>
<path d="M76.0676 116.741C76.0676 116.741 62.1231 126.889 46.1647 132.723C36.619 136.213 14.5993 140.662 14.5993 140.662" stroke="#383838" stroke-width="3"/>
</svg>
