<svg width="418" height="402" viewBox="0 0 418 402" fill="none" xmlns="http://www.w3.org/2000/svg">
<path d="M278.8 335.117C226.404 370.192 168.072 374.864 148.512 345.554C128.953 316.244 155.572 264.049 207.968 228.975C247.474 196.526 347.043 179.007 345.91 241.885C345.387 270.914 319.096 308.143 278.8 335.117Z" fill="white"/>
<path d="M208.267 228.631C155.871 263.706 129.252 315.9 148.812 345.21C168.372 374.521 226.703 369.848 279.1 334.774C308.243 315.265 334.706 289.044 343.638 257.997" stroke="#383838" stroke-width="3" stroke-miterlimit="10"/>
<path d="M269.612 201.584C251.67 174.446 153.288 29.541 153.288 29.541C153.288 29.541 133.519 80.5734 154.262 131.317C157.655 139.677 172.316 155.85 177.121 152.464C181.926 149.079 165.526 136.602 156.049 131.977C130.102 119.31 171.822 221.147 197.302 233.115C213.265 240.653 214.025 232.214 200.159 225.802C190.915 221.528 176.908 222.467 177.558 237.556C178.574 261.007 200.687 297.672 269.523 295.466" fill="white"/>
<path d="M269.612 201.584C251.67 174.446 153.288 29.541 153.288 29.541C153.288 29.541 133.519 80.5734 154.262 131.317C157.655 139.677 172.316 155.85 177.121 152.464C181.926 149.079 165.526 136.602 156.049 131.977C130.102 119.31 171.822 221.147 197.302 233.115C213.265 240.653 214.025 232.214 200.159 225.802C190.915 221.528 176.908 222.467 177.558 237.556C178.574 261.007 200.687 297.672 269.523 295.466" stroke="#383838" stroke-width="3" stroke-miterlimit="10"/>
<path d="M237.584 220.14C207.448 208.251 11.4136 133.272 11.4136 133.272C11.4136 133.272 24.4005 186.508 70.5198 216.046C78.0188 220.982 99.371 225.757 101.378 220.195C103.385 214.633 82.7393 213.941 72.3426 215.501C43.9072 220.024 136.379 279.45 163.96 274.655C181.3 271.653 177.095 264.344 162.044 266.994C151.997 268.826 141.071 277.659 150.214 289.595C164.491 308.217 203.563 325.43 258.625 284.184" fill="white"/>
<path d="M237.584 220.14C207.448 208.251 11.4136 133.272 11.4136 133.272C11.4136 133.272 24.4005 186.508 70.5198 216.046C78.0188 220.982 99.371 225.757 101.378 220.195C103.385 214.633 82.7393 213.941 72.3426 215.501C43.9072 220.024 136.379 279.45 163.96 274.655C181.3 271.653 177.095 264.344 162.044 266.994C151.997 268.826 141.071 277.659 150.214 289.595C164.491 308.217 203.563 325.43 258.625 284.184" stroke="#383838" stroke-width="3" stroke-miterlimit="10"/>
<path d="M171.157 194.216L165.479 191.983C167.418 192.767 169.31 193.511 171.157 194.216L228.197 216.653C247.583 207.894 254.602 205.558 269.496 201.663C235.365 205.042 217.187 211.781 171.157 194.216Z" fill="#383838"/>
<path d="M300.214 199.022C277.092 200.065 253.658 203.909 228.81 216.536" stroke="#383838" stroke-width="3" stroke-miterlimit="10"/>
<path d="M359.985 190.298C358.834 222.07 343.193 254.752 343.193 254.752L275.198 220.931C296.552 203.816 297.897 165.483 303.844 152.951C321.774 115.196 362.394 124.172 359.985 190.298Z" fill="white"/>
<path d="M266.791 226.318C298.796 208.823 297.897 165.483 303.844 152.951C321.774 115.196 362.394 124.172 359.985 190.299C358.071 208.27 356.878 211.455 356.878 211.455C355.316 222.23 347.385 248.647 340.457 266.919" stroke="#383838" stroke-width="3" stroke-miterlimit="10"/>
<path d="M408.713 174.082L408.817 182.094L402.322 182.34L359.544 195.065C359.544 195.065 355.252 188.118 343.608 186.401L343.213 186.366L343.324 185.414C354.994 182.938 359.213 173.578 358.693 166.861C358.372 162.645 356.556 156.829 356.556 156.829C356.556 156.829 358.656 161.666 365.818 165.25C373.927 170.247 408.689 173.616 408.689 173.616L408.713 174.082Z" fill="#FF9538" stroke="#383838" stroke-width="3" stroke-linejoin="bevel"/>
<path d="M348.035 161.997C348.118 167.751 345.566 172.399 342.326 172.375C339.636 172.348 337.291 169.12 336.544 164.707C336.389 163.754 336.949 162.885 337.848 162.489L338.888 162.05C340.767 161.251 340.705 158.704 338.789 157.905C337.683 157.461 337.056 156.279 337.542 155.269C338.572 152.99 340.178 151.534 342.003 151.567C345.244 151.592 347.948 156.266 348.055 162.026L348.035 161.997Z" fill="#383838"/>
<path d="M366.821 177.83C366.821 177.83 375.903 181.797 389.123 182.756C396.404 183.285 407.764 181.342 407.764 181.342" stroke="#383838" stroke-width="3"/>
</svg>
