<svg width="257" height="188" viewBox="0 0 257 188" fill="none" xmlns="http://www.w3.org/2000/svg">
<path d="M77.0744 150.466C77.0744 150.466 51.819 106.821 58.9767 67.4398C73.8884 -14.5385 125.563 -14.4658 137.114 36.8597C140.955 53.9101 133.666 72.9971 138.744 89.16L77.0744 150.466Z" fill="#FFDE00" stroke="#383838" stroke-width="3" stroke-miterlimit="10"/>
<path d="M2.98361 30.0087L1.4668 37.0302C1.4668 37.0302 11.8316 42.7754 22.7206 45.911C42.0765 51.4846 49.9646 49.8619 49.9646 49.8619C49.9646 49.8619 46.0515 60.3168 33.7995 65.3156C21.5474 70.3145 11.8316 68.795 11.8316 68.795C11.8316 68.795 22.7332 73.8561 30.6846 75.6805C41.4163 78.1427 58.7434 72.5024 58.7434 72.5024C58.7434 72.5024 66.0176 65.3593 81.0457 66.4067L81.5549 66.4795L81.6858 65.3156C67.7924 59.2927 65.1301 47.0287 67.6469 39.1582C69.2327 34.2119 71.7204 27.738 71.7204 27.738C71.7204 27.738 65.5178 31.5205 58.1419 33.9646C38.5945 38.1956 2.99816 29.9942 2.99816 29.9942L2.98361 30.0087Z" fill="#FF9538" stroke="#383838" stroke-width="3" stroke-linejoin="bevel"/>
<path d="M81.3667 36.3655C79.7228 43.6105 81.5559 50.2153 85.4547 51.1027C88.9172 51.8883 92.8306 47.9312 94.8237 41.9956C94.9983 41.4574 94.8091 40.8609 94.3436 40.5117L89.4991 36.8747C88.5389 36.1619 88.9026 34.6489 90.081 34.4307L94.8964 33.5578C95.5656 33.4414 96.0603 32.8304 95.9875 32.1466C95.5365 28.2768 93.8926 25.4109 91.4194 24.858C87.5206 23.9706 83.0252 29.1352 81.3813 36.3801L81.3667 36.3655Z" fill="#383838"/>
<path d="M254.736 173.815C256.976 140.878 235.328 86.5556 179.246 84.6062C149.379 83.5733 138.773 85.93 99.5223 112.422C44.0797 145.126 97.311 169.48 105.822 173.815C170.75 198.372 249.527 178.136 254.736 173.815Z" fill="#FFDE00"/>
<path d="M99.5067 112.641C120.34 93.5244 148.33 83.428 178.197 84.4609C234.265 86.4104 256 137.285 254.705 174.353C231.414 185.584 108.687 200.86 77.3937 150.451C74.0185 145.01 72.811 143.002 69.625 134.477" stroke="#383838" stroke-width="3" stroke-miterlimit="10"/>
<path d="M214.511 142.26C209.739 153.258 200.05 160.154 190.958 157.07C181.865 153.986 182.898 136.252 182.898 136.252L182.316 136.135C176.453 149.447 165.266 157.71 158.458 155.339C151.94 153.04 150.354 143.235 156.232 129.923C150.369 143.235 139.516 151.338 132.126 148.85C124.444 146.304 119.381 132.28 127.892 115.651" stroke="#383838" stroke-width="3" stroke-miterlimit="10"/>
</svg>
