<svg width="127" height="155" viewBox="0 0 127 155" fill="none" xmlns="http://www.w3.org/2000/svg">
<path d="M39.9586 77.8603L68.8495 98.6447C68.8495 98.6447 66.0218 111.283 71.703 120.458C65.0075 107.844 63.1495 102.065 55.2051 91.9879C49.682 84.9823 39.3539 80.201 39.3539 80.201L39.9586 77.8603Z" fill="#FF9538" stroke="#383838" stroke-width="2" stroke-miterlimit="10"/>
<path d="M74.9762 86.024L66.8062 79.8199L66.2474 82.0552C66.2474 82.0552 71.3953 85.1665 74.4044 87.0792C74.7215 86.7349 74.6591 86.3684 74.9762 86.024Z" fill="#383838"/>
<path d="M45.5188 69.2732L73.4805 91.7688C73.4805 91.7688 82.0173 83.4765 91.4245 85.7883C78.9537 83.8115 73.7422 84.2088 62.7022 79.8334C55.027 76.7916 47.0663 67.6502 47.0663 67.6502L45.5188 69.2732Z" fill="#FF9538" stroke="#383838" stroke-width="2" stroke-miterlimit="10"/>
<path d="M52.654 77.6688L44.8081 71.305L46.308 69.747C46.308 69.747 51.0635 74.2862 53.7971 76.7421C53.6621 77.2332 53.1079 78.0139 52.654 77.6688Z" fill="#383838"/>
<path d="M105.146 135.998L109.307 144.97L101.435 149.724" stroke="#383838" stroke-width="2"/>
<path d="M103.208 137.574L107.369 146.546L115.24 141.793" stroke="#383838" stroke-width="2"/>
<path d="M79.3013 86.791C67.2845 93.2248 63.3027 110.065 70.4076 124.405C77.5126 138.745 93.0139 145.154 105.031 138.72C117.047 132.286 121.029 115.446 113.924 101.106C106.819 86.7662 91.3181 80.3572 79.3013 86.791Z" fill="white" stroke="#383838" stroke-width="2" stroke-miterlimit="10"/>
<path d="M79.3013 86.791C67.2845 93.2248 63.3027 110.065 70.4076 124.405C77.5126 138.745 93.0139 145.154 105.031 138.72C117.047 132.286 121.029 115.446 113.924 101.106C106.819 86.7662 91.3181 80.3572 79.3013 86.791Z" fill="#ED6C02" fill-opacity="0.3" stroke="#383838" stroke-width="2" stroke-miterlimit="10"/>
<path d="M110.232 103.269C116.407 115.732 115.882 131.184 105.983 137.608C118.686 131.93 119.61 112.58 113.998 101.253C107.626 88.3945 93.3239 79.7324 80.6648 86.5101C93.5111 82.8666 104.057 90.8065 110.232 103.269Z" fill="#383838"/>
<path d="M83.2568 102.517C84.5192 105.183 87.0017 106.67 88.8016 105.837C90.3253 105.132 90.8714 102.991 90.2375 100.733C90.1263 100.337 89.7417 100.093 89.3488 100.129L87.7305 100.276C86.9057 100.351 86.415 99.2966 87.0099 98.7275L87.709 98.0586C88.0602 97.7226 88.0582 97.1325 87.6518 96.8294C86.5268 95.9904 85.2655 95.7021 84.2301 96.1812C82.4302 97.014 81.9945 99.8506 83.2568 102.517Z" fill="#383838"/>
<path d="M74.8809 105.998C76.1432 108.664 78.6257 110.151 80.4257 109.318C81.9493 108.613 82.4954 106.472 81.8615 104.214C81.7503 103.818 81.3657 103.574 80.9728 103.61L79.3546 103.757C78.5297 103.832 78.039 102.778 78.6339 102.208L79.333 101.54C79.6843 101.204 79.6822 100.613 79.2758 100.31C78.1508 99.4714 76.8896 99.183 75.8542 99.6621C74.0542 100.495 73.6185 103.332 74.8809 105.998Z" fill="#383838"/>
<path d="M93.9328 64.9379C93.0722 79.0236 75.422 88.1619 54.51 85.349C47.0415 84.3444 42.7407 82.5196 35.4312 76.9257C25.8407 69.5861 21.2616 57.8793 30.4578 46.2934C30.425 31.9333 36.7148 31.5273 57.6267 34.3403C78.5387 37.1532 94.7935 50.8523 93.9328 64.9379Z" fill="white" stroke="#383838" stroke-width="2" stroke-miterlimit="10"/>
<path d="M84.1009 57.3788C84.4758 72.2841 67.041 59.7989 63.5538 53.2022C61.4131 49.1871 63.8588 46.6053 65.9063 52.1251C75.8479 78.7895 50.6327 64.3637 49.8199 50.2104" stroke="#383838" stroke-width="2" stroke-miterlimit="10"/>
<path d="M40.5892 80.225C40.5892 80.225 32.2062 76.5735 25.381 65.7285C18.0212 55.9195 15.2675 42.7929 15.0633 37.4443C10.5098 7.89779 28.7695 -3.04393 38.8626 12.6448C42.2113 17.8525 44.6397 39.195 55.9083 43.8285L42.985 53.8533L41.8189 78.7318L40.5892 80.225Z" fill="white"/>
<path d="M55.0367 42.5194C44.4191 38.2923 44.7861 24.4106 40.119 15.5609C30.032 -3.56621 13.1781 5.6802 14.5466 31.3158C16.1031 51.5236 23.3894 70.866 40.5587 80.6065" stroke="#383838" stroke-width="2" stroke-miterlimit="10"/>
<path d="M24.577 32.6487L23.9774 36.6639C23.8754 37.347 24.0228 38.1367 24.4031 38.9443C24.9041 40.0082 24.6988 40.9822 23.8618 41.3282C22.666 41.8225 21.4494 41.9769 18.0259 40.516L4.16959 33.5306L1.57886 32.8403L0.904531 29.8044L9.35562 30.6857C11.3564 30.7924 15.0131 30.7649 16.4609 30.6465C18.5702 30.4741 18.9026 30.3025 21.2349 30.3085C23.3316 30.3139 24.4395 32.0005 24.577 32.6487Z" fill="#FF9538" stroke="#383838" stroke-width="2" stroke-linejoin="bevel"/>
<path d="M21.017 34.6186C21.017 34.6186 16.7552 36.8033 11.4605 35.5369C8.29339 34.7794 0.727539 30.6848 0.727539 30.6848" stroke="#383838" stroke-width="2"/>
<path d="M29.2654 20.0367C29.57 22.2384 29.0382 23.727 28.0774 23.3616C27.2244 23.0372 26.32 21.3601 25.9147 19.447C25.8798 19.2818 25.9438 19.1627 26.0738 19.1386L27.2852 18.9144C27.5559 18.8643 27.4933 18.4398 27.1756 18.1714L26.0342 17.2072C25.8535 17.0545 25.7376 16.8288 25.7637 16.665C25.9205 15.6799 26.3596 15.1549 26.9742 15.3887C27.935 15.754 28.9608 17.835 29.2654 20.0367Z" fill="#383838"/>
<path d="M22.2703 20.1332C22.5749 22.3348 22.043 23.8235 21.0823 23.4581C20.2292 23.1337 19.3249 21.4566 18.9196 19.5434C18.8846 19.3783 18.9487 19.2591 19.0787 19.235L20.2901 19.0109C20.5608 18.9608 20.4982 18.5362 20.1804 18.2678L19.0391 17.3036C18.8583 17.1509 18.7425 16.9253 18.7686 16.7614C18.9254 15.7764 19.3645 15.2514 19.9791 15.4851C20.9398 15.8505 21.9656 17.9315 22.2703 20.1332Z" fill="#383838"/>
</svg>
